<?xml version="1.0" encoding="UTF-8"?>
<svg id="Artwork" xmlns="http://www.w3.org/2000/svg" viewBox="0 0 791.22 141.77">
  <defs>
    <style>
      .cls-1 {
        fill: #0499fd;
      }

      .cls-2 {
        fill: #f5333f;
      }
    </style>
  </defs>
  <path class="cls-2" d="M100.71,80.83c-5.53,14.92-18.99,24.79-36.32,24.79-22.85,0-39.14-17.48-39.14-41.63s16.29-40.91,39.14-40.91c17.37,0,30.87,9.78,36.36,24.61h25.9C120.18,19.13,96.01,0,64.39,0,27.2,0,.1,27.03.1,64.16s26.92,64.34,64.29,64.34c31.54,0,55.84-19.36,62.25-47.68h-25.93Z"/>
  <path class="cls-1" d="M368.13,61.02v21.29h35.63c-4.75,14.29-18.66,24.38-35.63,24.38-22.71,0-39.39-18.02-39.39-42.7s16.5-42.36,39.39-42.36c17.39,0,30.88,10.64,35.85,26.13h25.73c-5.5-27.75-30.88-47.76-61.75-47.76-37.27,0-64.42,27.04-64.42,64.16s26.96,64.34,64.42,64.34,64.41-27.14,63.79-67.48h-63.62Z"/>
  <path class="cls-2" d="M176.25,128.5c-23.43,0-41.46-18.93-41.46-45.06,0-27.94,20.01-47.4,47.76-47.4s47.76,19.65,47.76,46.32v44.52h-23.61v-12.26c-5.95,8.47-17.12,13.88-30.46,13.88ZM182.74,108.14c14.06,0,23.97-10.99,23.97-25.77s-10.09-25.95-23.97-25.95-23.79,10.99-23.79,25.95,9.91,25.77,23.79,25.77Z"/>
  <path class="cls-2" d="M298.17,37.84l-.91,2.45-.46,1.28-.41,1.24-.39,1.29-.36,1.3-.36,1.33-.31,1.3-.3,1.31-.24,1.29-.25,1.29-.2,1.29-.2,1.31-.16,1.28-.15,1.3-.07.99-.05,1.08h-6.35c-13.2.07-20.86,6.2-20.86,18.56v49.1h-23.61v-52.99c0-22.87,16.39-36.03,44.67-36.04h10.97Z"/>
  <path class="cls-1" d="M525.97,37.84h-24.36v52.37c-.64,6.37-3.78,9.8-6.63,12.3-11.7,9.22-28.69.98-29.04-13.22v-51.45h-23.94v53.55c1.5,47.96,81.43,50.4,83.99,1.67l-.02-55.22Z"/>
  <path class="cls-1" d="M590.38,37.84v21.36h-8.25c-13.34.01-21.33,6.14-21.33,18.57v49.1h-23.62v-52.99c0-22.88,16.4-36.04,44.71-36.04h0s.43,0,.43,0h8.06Z"/>
  <path class="cls-1" d="M732.99,128.5c-23.07,0-39.29-12.08-39.29-28.84h22.71c.54,7.03,7.03,12.08,16.4,12.08,8.65,0,14.78-4.33,14.78-10.27,0-7.39-10.81-9.91-23.61-12.44-13.16-2.52-28.48-9.55-28.48-25.77s14.96-27.22,36.41-27.22,36.77,11.9,36.77,28.3h-21.45c-.54-6.85-6.49-11.9-15.14-11.9-7.93,0-13.52,4.15-13.52,9.37,0,6.67,9.01,9.73,21.45,12.44,13.16,2.88,31.36,8.29,31.36,26.5,0,16.4-15.86,27.76-38.39,27.76Z"/>
  <path class="cls-1" d="M684.53,37.84h-24.36v52.37c-.64,6.37-3.78,9.8-6.63,12.3-11.7,9.22-28.69.98-29.04-13.22v-51.45h-23.94v53.55c1.5,47.96,81.43,50.4,83.99,1.67l-.02-55.22Z"/>
  <g>
    <path class="cls-1" d="M774.02,38h-2.71v-1.96h7.47v1.96h-2.69v7.73h-2.07v-7.73Z"/>
    <path class="cls-1" d="M780.13,36.04h3.31l2.19,6.7h.08l2.19-6.7h3.27v9.69h-2.07v-7.09h-.06l-2.33,7.09h-2.13l-2.3-7.09h-.08v7.09h-2.07v-9.69Z"/>
  </g>
</svg>